<?xml version="1.0" standalone="no"?>
<!DOCTYPE svg PUBLIC "-//W3C//DTD SVG 20010904//EN"
 "http://www.w3.org/TR/2001/REC-SVG-20010904/DTD/svg10.dtd">
<svg version="1.0" xmlns="http://www.w3.org/2000/svg"
 width="460.000000pt" height="460.000000pt" viewBox="0 0 460.000000 460.000000"
 preserveAspectRatio="xMidYMid meet">

<g transform="translate(0.000000,460.000000) scale(0.100000,-0.100000)"
fill="#000000" stroke="none">
<path d="M1360 4197 c-83 -28 -133 -76 -170 -163 -58 -134 15 -318 144 -365
31 -11 36 -18 46 -61 5 -27 10 -59 10 -72 0 -12 12 -55 26 -95 14 -40 22 -76
18 -80 -5 -5 -46 -38 -91 -75 -136 -111 -220 -220 -323 -421 -39 -74 -41 -84
-37 -142 5 -61 4 -63 -19 -63 -35 0 -104 -30 -152 -67 -24 -18 -52 -33 -62
-33 -29 0 -153 -61 -185 -91 -112 -106 -185 -185 -185 -201 0 -6 -32 -58 -70
-114 -69 -101 -80 -124 -60 -124 19 0 10 -20 -25 -57 -29 -31 -35 -45 -35 -80
0 -26 -10 -63 -24 -91 -13 -26 -36 -86 -51 -134 -24 -73 -26 -92 -17 -113 8
-17 10 -61 5 -132 -7 -126 14 -242 53 -296 13 -17 29 -42 35 -54 7 -12 21 -23
32 -25 13 -2 34 -32 69 -100 39 -78 62 -109 115 -157 43 -40 77 -63 100 -67
58 -11 62 6 21 89 -20 42 -39 97 -43 129 l-7 55 52 51 c49 47 52 53 47 87 -6
38 19 92 57 124 14 12 18 9 33 -25 28 -61 64 -116 97 -147 64 -61 124 -71 112
-18 -30 134 -30 401 0 491 9 27 29 56 49 73 37 30 48 57 66 167 16 100 21 108
61 103 71 -9 78 -12 78 -41 0 -15 7 -38 16 -50 8 -12 18 -48 21 -80 3 -31 11
-66 18 -78 12 -19 7 -29 -54 -111 -100 -134 -137 -212 -152 -313 -16 -113 -7
-144 44 -148 31 -3 42 2 65 28 15 17 48 53 73 79 l47 49 77 4 c73 3 78 5 104
37 l28 34 51 -17 c62 -21 104 -11 158 36 l33 29 40 -32 c36 -28 45 -31 91 -27
49 5 50 5 50 -23 0 -15 5 -31 10 -34 18 -11 10 -36 -20 -62 -26 -22 -30 -31
-30 -78 l0 -53 -37 -9 c-34 -8 -39 -13 -47 -51 -10 -42 -10 -42 -53 -42 -40 0
-45 -3 -55 -30 -10 -29 -12 -30 -58 -24 -45 6 -48 5 -70 -26 l-23 -33 -144 7
-143 7 0 -31 c0 -17 5 -40 11 -51 14 -27 97 -111 136 -137 47 -33 164 -80 256
-104 151 -40 386 -22 562 42 28 10 70 24 94 30 24 6 82 33 128 58 46 26 97 54
113 62 38 20 198 172 229 218 13 20 30 42 36 47 24 21 73 93 123 182 69 120
95 232 90 382 l-3 104 40 14 c21 7 49 23 61 34 22 21 24 21 68 4 45 -18 58
-17 201 1 l50 6 -3 -81 c-3 -53 0 -86 8 -96 6 -8 9 -19 5 -25 -8 -13 -53 -181
-66 -248 -7 -33 -4 -54 10 -91 l18 -48 -37 -104 c-44 -123 -96 -229 -139 -283
-17 -22 -30 -44 -28 -50 8 -24 73 -17 148 17 59 28 88 48 133 98 32 35 70 89
85 119 55 108 63 120 92 140 20 15 29 30 29 48 -1 66 46 362 57 362 22 0 26
23 24 166 -1 79 0 144 4 144 3 0 15 -21 26 -47 11 -27 26 -55 33 -63 8 -8 16
-44 20 -80 12 -122 43 -226 86 -290 26 -38 12 -326 -20 -423 -20 -58 -21 -70
-9 -78 18 -11 43 -3 99 34 42 28 61 53 122 162 20 35 68 217 68 258 0 15 7 39
16 52 14 21 15 34 4 92 -13 76 -51 226 -74 292 -18 50 -19 51 -8 51 7 0 40
-71 77 -167 9 -23 25 -45 35 -48 21 -7 26 -22 39 -135 14 -115 15 -190 6 -282
-7 -74 -7 -78 12 -78 27 0 116 96 143 154 29 65 40 138 41 286 0 68 4 131 9
140 10 19 -31 143 -85 259 -30 65 -37 87 -32 118 5 31 -1 51 -33 113 -21 41
-48 95 -60 119 -11 24 -34 59 -50 78 -17 18 -30 38 -30 42 0 18 -142 149 -168
156 -15 3 -44 17 -64 31 -21 13 -50 24 -66 24 -15 0 -77 -25 -137 -55 -61 -30
-111 -55 -112 -55 -1 0 3 16 8 36 9 29 6 49 -17 117 -15 45 -38 103 -51 128
-12 26 -23 50 -23 54 0 18 -74 151 -110 196 -22 28 -40 55 -40 60 0 11 -171
179 -181 179 -4 0 -33 21 -65 46 -59 46 -225 131 -339 173 -33 13 -67 26 -75
30 -9 5 -48 14 -88 21 -58 11 -71 16 -68 29 3 9 10 43 15 75 6 33 12 60 13 61
2 1 27 15 56 30 55 30 107 96 130 164 44 129 -27 291 -154 350 -113 53 -256
-1 -313 -119 -22 -46 -26 -69 -26 -140 0 -97 25 -167 76 -209 24 -20 29 -31
29 -70 0 -25 -3 -62 -6 -82 l-6 -36 -212 -6 c-204 -5 -260 -12 -436 -53 -109
-26 -111 -25 -126 26 -7 25 -17 78 -23 118 l-11 72 32 30 c18 16 36 30 40 30
9 0 24 51 39 127 10 54 9 72 -7 134 -15 59 -27 80 -61 114 -70 70 -158 98
-233 72z m1085 -641 c-12 -94 -37 -179 -75 -253 -37 -70 -46 -83 -83 -112 -20
-16 -23 -8 -4 11 39 39 125 267 142 376 10 61 28 42 20 -22z m-965 -2 c3 -28
10 -58 16 -65 6 -8 14 -36 18 -64 3 -27 8 -63 11 -80 5 -29 5 -29 -6 -5 -26
58 -71 188 -78 228 -8 40 -7 43 13 40 17 -2 22 -12 26 -54z m848 -101 c-2 -10
-10 -18 -18 -18 -8 0 -18 -8 -22 -17 -9 -22 -36 -23 -59 -2 -15 14 -23 14 -53
3 -31 -11 -38 -11 -56 6 -19 17 -25 17 -93 5 -58 -11 -76 -19 -95 -42 -29 -35
-92 -40 -114 -9 -13 18 -15 18 -91 -6 -54 -18 -82 -22 -89 -15 -18 18 0 31 72
52 158 47 238 58 433 59 174 1 188 0 185 -16z m379 -70 c219 -69 429 -192 530
-308 68 -80 75 -99 12 -38 -72 70 -200 173 -216 173 -7 0 -13 -12 -13 -27 -1
-94 -135 -89 -171 6 -11 28 9 66 42 76 28 9 17 18 -61 50 -102 41 -150 49
-165 29 -15 -22 -45 -12 -45 15 0 15 -10 23 -37 30 -21 6 -44 11 -50 11 -7 0
-13 9 -13 19 0 23 -1 24 187 -36z m-600 -9 c8 -23 -20 -47 -46 -39 -23 7 -27
25 -9 43 17 17 48 15 55 -4z m85 1 c0 -5 -5 -11 -11 -13 -6 -2 -11 4 -11 13 0
9 5 15 11 13 6 -2 11 -8 11 -13z m-329 -47 c8 -25 -13 -48 -44 -48 -33 0 -48
22 -29 45 15 18 67 20 73 3z m157 -18 c22 -40 -27 -83 -70 -60 -25 13 -27 55
-2 69 28 17 60 13 72 -9z m-536 -26 c4 -9 5 -17 4 -18 -28 -11 -42 -27 -40
-45 4 -25 -26 -41 -38 -20 -7 11 -13 9 -31 -6 -38 -34 -114 -117 -165 -180
-26 -33 -56 -68 -65 -78 -18 -20 -62 -117 -52 -117 3 0 46 26 96 57 111 70
242 117 402 145 104 17 144 19 305 14 185 -6 205 -9 490 -73 35 -8 123 -37
195 -65 71 -27 150 -57 175 -65 50 -17 166 -68 190 -83 8 -5 32 -19 53 -30 20
-11 37 -22 37 -25 0 -10 -177 57 -216 82 -11 7 -72 31 -135 52 -63 21 -158 55
-213 75 -118 43 -317 81 -519 97 -167 14 -306 4 -462 -32 -89 -21 -231 -74
-241 -91 -3 -4 -29 -20 -57 -35 -29 -14 -77 -48 -107 -76 -50 -46 -55 -48 -58
-28 -2 12 5 38 16 59 11 20 32 62 47 92 61 122 174 260 287 352 78 64 91 70
102 42z m1287 -4 c28 -16 25 -58 -5 -66 -48 -12 -86 32 -54 64 15 15 33 15 59
2z m-626 -35 c0 -14 -8 -21 -27 -23 -22 -3 -28 1 -28 16 0 25 10 33 35 30 12
-2 20 -10 20 -23z m555 -65 c22 -41 -12 -81 -50 -60 -26 14 -31 35 -14 59 19
27 50 27 64 1z m-694 -5 c7 -18 -13 -45 -33 -45 -17 0 -27 24 -19 45 7 20 45
19 52 0z m74 7 c0 -13 -12 -22 -22 -16 -10 6 -1 24 13 24 5 0 9 -4 9 -8z
m-691 -51 c13 -24 -8 -55 -35 -49 -25 4 -31 38 -8 55 24 17 31 16 43 -6z
m1699 -45 c2 -10 -1 -23 -7 -29 -15 -15 -46 16 -37 38 8 21 40 15 44 -9z
m-229 0 c25 -30 -24 -71 -54 -46 -16 13 -20 42 -8 53 11 12 50 8 62 -7z m-182
-60 c-9 -23 -37 -20 -37 3 0 21 20 33 34 20 5 -4 6 -15 3 -23z m323 9 c41 -21
50 -62 20 -87 -27 -22 -44 -23 -75 -2 -30 20 -38 40 -23 67 20 40 35 44 78 22z
m208 -1 c29 -20 30 -69 2 -84 -28 -15 -74 8 -78 38 -4 24 22 62 42 62 6 0 22
-7 34 -16z m-1935 -26 c6 -18 -22 -48 -39 -41 -17 6 -18 25 -2 41 16 16 35 15
41 0z m1501 -24 c7 -19 -10 -44 -29 -44 -7 0 -18 7 -25 15 -10 12 -10 18 0 30
16 20 46 19 54 -1z m-762 -80 c88 -6 116 -19 105 -48 -5 -11 -26 -13 -110 -9
-85 5 -109 3 -127 -10 -21 -14 -25 -14 -49 1 -19 13 -48 17 -111 17 -80 0 -85
1 -88 22 -3 19 3 22 50 27 29 3 67 7 83 9 31 4 97 2 247 -9z m1113 -44 c0 -18
-6 -26 -21 -28 -23 -3 -37 18 -27 44 10 25 48 13 48 -16z m-1565 8 c0 -5 -11
-8 -24 -8 -27 0 -41 -14 -31 -30 4 -6 15 -6 31 0 18 7 31 6 49 -6 19 -13 24
-26 28 -77 5 -74 38 -190 72 -255 30 -60 97 -132 121 -132 41 0 95 22 110 45
l15 24 43 -30 c23 -17 60 -34 82 -39 48 -12 124 -13 124 -2 0 4 -7 34 -15 67
-8 33 -15 74 -15 90 0 17 -6 48 -14 70 -12 33 -12 46 1 85 8 25 17 63 20 85 8
55 21 77 41 71 43 -12 122 -17 122 -8 0 5 -9 12 -20 15 -11 3 -20 1 -20 -4 0
-4 -7 -6 -16 -2 -14 5 -14 7 -1 14 17 10 167 -21 167 -34 0 -5 -4 -5 -10 -2
-5 3 -10 -3 -10 -14 0 -12 7 -21 15 -21 8 0 15 9 15 20 0 11 4 20 9 20 12 0
184 -66 213 -81 19 -10 19 -12 5 -21 -26 -14 -20 -31 8 -26 27 6 29 -9 5 -30
-8 -8 -9 -11 -2 -7 6 3 12 2 12 -4 0 -6 7 -7 17 -4 11 4 14 3 9 -5 -5 -8 -2
-10 8 -6 9 3 16 1 16 -5 0 -9 5 -9 20 -1 11 6 25 8 30 5 15 -9 12 9 -5 31 -14
19 -15 19 -21 -3 -7 -26 -6 -25 -28 -17 -12 5 -13 10 -4 30 6 13 18 24 26 24
16 0 190 -86 207 -102 6 -6 4 -7 -6 -3 -10 4 -19 -2 -26 -18 -10 -21 -8 -28
15 -50 30 -27 125 -77 148 -77 8 0 14 -4 14 -10 0 -5 8 -10 18 -10 28 0 54
-34 50 -66 l-3 -27 -45 37 c-100 81 -217 108 -346 82 -84 -18 -123 -37 -199
-101 -27 -23 -64 -49 -81 -58 -43 -22 -82 -71 -90 -112 l-6 -35 -89 7 c-135 9
-210 -7 -420 -94 -60 -25 -149 -11 -248 39 -71 37 -87 49 -100 80 -15 36 -31
50 -31 28 0 -19 -33 -10 -72 21 -37 30 -38 32 -22 50 14 16 14 19 3 19 -8 0
-20 -5 -27 -12 -9 -9 -12 -9 -12 -1 0 7 5 15 11 18 16 10 -22 43 -44 37 -24
-6 -67 41 -133 146 -67 107 -72 124 -45 158 12 15 21 23 21 18 0 -5 7 2 16 14
9 13 21 21 27 19 17 -6 49 12 42 24 -4 5 1 9 10 9 10 0 13 5 9 12 -4 6 -3 8 3
5 18 -11 36 21 29 53 -4 24 -2 30 11 30 9 0 13 -3 10 -6 -3 -4 -1 -16 5 -27
10 -20 11 -20 24 -2 10 13 11 22 3 32 -9 10 -5 15 16 23 15 6 32 13 36 16 5 3
9 0 9 -5 0 -6 -7 -11 -15 -11 -8 0 -15 -7 -15 -15 0 -10 10 -15 28 -15 38 0
46 9 25 32 -15 17 -15 18 10 18 15 0 27 4 27 9 0 5 11 8 25 7 14 0 25 -4 25
-8z m1735 -4 c22 -22 15 -48 -13 -52 -23 -3 -52 13 -52 29 0 10 29 39 40 39 5
0 16 -7 25 -16z m-246 -41 c6 -4 -20 -33 -30 -33 -4 0 -15 7 -24 16 -14 15
-14 17 2 29 14 10 22 11 33 2 8 -6 17 -13 19 -14z m-1260 -22 c7 -5 14 -21 16
-37 1 -16 8 -49 15 -74 11 -43 11 -45 -15 -67 -16 -14 -39 -23 -60 -23 -30 0
-37 6 -59 43 -46 77 -47 152 -3 160 40 8 92 7 106 -2z m296 -15 c18 -13 19
-17 5 -63 -21 -69 -12 -249 13 -291 11 -17 -41 -16 -83 2 -31 13 -90 86 -90
112 0 7 -3 20 -7 29 -5 15 -3 16 15 6 11 -6 42 -11 68 -11 41 0 46 2 34 13 -8
8 -34 19 -58 26 -64 18 -82 41 -82 105 0 85 1 86 89 86 51 0 84 -5 96 -14z
m1360 -16 c3 -5 1 -10 -4 -10 -6 0 -11 5 -11 10 0 6 2 10 4 10 3 0 8 -4 11
-10z m-226 -14 c13 -16 4 -46 -14 -46 -7 0 -18 7 -25 15 -10 12 -10 18 0 30
15 19 24 19 39 1z m-135 -75 c4 -5 -3 -7 -14 -4 -23 6 -26 13 -6 13 8 0 17 -4
20 -9z m396 -6 c0 -8 -2 -15 -4 -15 -2 0 -6 7 -10 15 -3 8 -1 15 4 15 6 0 10
-7 10 -15z m-2461 -91 c82 -38 84 -39 89 -53 3 -8 -9 -6 -34 7 -51 25 -94 35
-94 22 0 -5 -7 -10 -15 -10 -10 0 -15 10 -15 30 0 17 3 30 7 30 3 0 31 -12 62
-26z m761 -14 c17 0 39 4 49 9 15 9 20 2 35 -48 9 -31 14 -64 11 -73 -9 -22
-62 -40 -84 -29 -16 9 -61 91 -76 139 -6 21 -5 23 13 13 12 -6 35 -11 52 -11z
m-890 -9 c0 -5 -9 -7 -20 -4 -11 3 -20 7 -20 9 0 2 9 4 20 4 11 0 20 -4 20 -9z
m2095 -31 c15 -18 15 -21 3 -11 -9 7 -21 10 -26 7 -6 -3 -15 1 -21 8 -10 11
-8 15 6 18 10 3 18 4 18 4 0 -1 9 -12 20 -26z m-2172 -27 c17 -9 82 -33 143
-54 99 -33 214 -84 214 -95 0 -4 2 -5 -125 39 -55 20 -116 38 -135 42 -19 4
-50 12 -67 18 -29 10 -35 8 -47 -8 -18 -25 -22 -20 -29 33 -6 47 -1 50 46 25z
m2701 -24 c-15 -17 -27 -20 -60 -15 -46 6 -99 24 -92 31 3 3 28 1 56 -5 41 -9
56 -9 79 3 35 19 42 13 17 -14z m-413 -10 c9 -10 20 -15 24 -11 5 4 5 1 1 -6
-6 -9 -12 -10 -29 0 -12 7 -25 11 -29 10 -4 -1 -12 8 -19 19 -10 19 -9 20 13
14 12 -5 30 -16 39 -26z m759 25 c0 -3 -9 -17 -20 -31 -11 -14 -20 -38 -20
-54 0 -15 -5 -31 -11 -34 -13 -9 -40 25 -34 43 8 23 -47 8 -169 -47 -79 -36
-119 -51 -123 -47 -5 5 79 56 91 56 5 0 20 9 35 19 14 10 46 24 70 31 25 6 69
25 99 41 52 28 82 36 82 23z m-3156 -20 c30 -11 18 -34 -16 -33 -43 1 -79 15
-58 22 53 19 54 19 74 11z m3264 -33 c10 -6 4 -10 -18 -15 -38 -7 -63 4 -34
15 26 10 37 10 52 0z m-3327 -52 l24 -21 -24 6 c-23 5 -101 -35 -101 -52 0 -4
-14 -16 -30 -25 -17 -10 -37 -33 -46 -50 -9 -18 -31 -50 -49 -72 -18 -22 -39
-54 -49 -72 -16 -32 -16 -32 11 -47 l28 -15 -26 -1 c-14 0 -34 6 -45 14 -19
14 -19 15 1 52 11 21 33 54 48 73 16 20 49 66 73 103 79 119 135 151 185 107z
m2366 -20 c40 -19 68 -40 75 -55 6 -13 15 -24 19 -24 4 0 19 -30 34 -67 23
-56 28 -83 28 -153 0 -49 -6 -100 -14 -120 -21 -53 -97 -161 -141 -199 l-38
-33 0 36 c0 20 5 36 10 36 10 0 57 38 92 75 10 11 30 43 45 72 23 49 25 61 21
150 -4 89 -7 102 -36 147 -31 48 -77 87 -118 100 -18 6 -21 3 -17 -17 8 -40
-19 -52 -81 -38 -58 13 -73 30 -55 62 11 21 12 21 -84 -2 -50 -13 -154 -75
-167 -100 -10 -17 -7 -21 24 -34 20 -8 39 -15 44 -15 31 0 132 -58 179 -103
65 -61 118 -126 110 -134 -3 -3 -37 22 -74 56 -107 97 -187 146 -273 167 -41
10 -77 19 -79 21 -8 6 66 75 129 121 82 59 146 81 234 82 56 0 80 -5 133 -31z
m1071 -36 c40 -49 55 -73 72 -117 7 -20 6 -24 -4 -20 -8 3 -16 14 -19 25 -3
11 -11 17 -19 14 -7 -3 -35 17 -63 43 -27 26 -59 47 -70 47 -28 0 -30 29 -3
43 44 21 65 14 106 -35z m-3114 14 c23 -13 61 -29 86 -36 123 -35 162 -55 225
-113 35 -32 13 -40 -26 -9 -33 25 -197 96 -242 105 l-37 7 7 -48 c7 -59 2 -55
-31 27 -15 36 -30 71 -33 78 -8 18 5 15 51 -11z m-139 -59 c40 -18 30 -31 -20
-24 -41 7 -45 5 -45 -13 0 -25 -28 -41 -73 -41 -20 0 -45 -8 -58 -20 l-24 -19
28 -1 c15 0 27 -5 27 -11 0 -11 -16 -9 -54 6 -14 6 -18 4 -14 -6 8 -26 119
-78 168 -80 l45 -1 -29 -12 c-33 -15 -95 -3 -181 35 -28 12 -56 18 -71 15 -47
-12 -26 24 34 59 17 11 32 23 32 27 0 8 105 81 130 91 26 10 78 7 105 -5z
m2848 -3 c-12 -8 -27 -31 -33 -50 -12 -36 -30 -39 -30 -5 0 16 -5 17 -38 9
-21 -4 -78 -22 -126 -39 -103 -37 -137 -34 -51 4 33 15 69 31 80 37 53 26 154
58 185 58 33 1 34 1 13 -14z m122 -45 c4 -6 -8 -10 -30 -10 -22 0 -34 4 -30
10 3 6 17 10 30 10 13 0 27 -4 30 -10z m78 -87 c20 -23 125 -266 133 -309 5
-28 2 -35 -22 -50 -34 -23 -137 -26 -156 -5 -8 9 -9 12 -1 7 46 -26 153 15
153 59 0 59 -59 162 -101 178 -10 3 -29 28 -45 56 -21 39 -33 51 -51 51 -12 0
-23 -4 -23 -10 0 -5 -4 -10 -10 -10 -17 0 -11 28 8 39 28 17 97 13 115 -6z
m-416 -78 c-53 -50 -57 -52 -57 -29 0 14 -8 16 -57 11 -32 -4 -70 -10 -85 -13
-18 -4 -28 -2 -28 5 0 15 184 68 244 70 l30 1 -47 -45z m-961 -28 c76 -26 134
-62 199 -124 64 -59 119 -143 96 -143 -13 0 -75 61 -96 93 -9 15 -22 27 -27
27 -6 0 -32 16 -58 35 -86 63 -154 88 -256 93 l-92 4 -12 -36 c-14 -42 -73
-86 -117 -86 -48 0 -80 49 -51 78 7 7 10 12 7 12 -16 0 -107 -36 -165 -66 -37
-19 -73 -34 -80 -34 -8 0 -31 -7 -53 -16 -39 -15 -39 -16 -20 -35 36 -36 18
-119 -32 -145 -44 -22 -85 -18 -108 12 -12 15 -21 33 -21 42 0 18 -48 11 -86
-14 -24 -16 -24 -18 -7 -27 70 -37 47 -147 -31 -147 -43 0 -66 19 -69 57 -2
25 -5 29 -18 23 -28 -15 -234 -224 -262 -266 -31 -45 -97 -200 -97 -226 0 -10
-5 -18 -11 -18 -14 0 -4 74 18 140 23 67 91 187 127 223 18 18 49 54 71 80 21
27 50 54 64 62 14 8 44 30 66 50 22 20 81 59 130 87 50 28 109 64 132 80 24
16 60 35 80 42 21 7 54 22 73 33 82 45 190 86 299 114 102 26 129 29 226 25
83 -3 128 -10 181 -29z m1717 -40 c-25 -15 -53 -26 -62 -25 -11 3 -2 12 26 28
31 18 43 31 43 49 l0 23 19 -23 18 -23 -44 -29z m-635 37 c12 -4 22 -11 22
-16 0 -10 -70 0 -84 13 -11 10 27 12 62 3z m592 -4 c0 -5 -7 -10 -16 -10 -8 0
-12 5 -9 10 3 6 10 10 16 10 5 0 9 -4 9 -10z m-3568 -27 c27 -24 23 -29 -27
-25 l-44 4 6 -35 c4 -30 1 -38 -20 -52 -18 -11 -36 -15 -56 -10 -29 6 -33 3
-80 -71 l-50 -78 30 -18 c17 -10 27 -23 24 -28 -10 -16 -85 -12 -91 4 -3 8 13
51 35 96 35 70 63 110 147 213 19 23 100 23 126 0z m1810 -47 c14 -20 8 -35
-17 -52 -23 -15 -27 -15 -50 0 -26 17 -25 41 3 64 17 13 52 7 64 -12z m1205
-25 c18 -26 23 -48 23 -97 0 -35 -4 -64 -9 -64 -13 0 -51 50 -51 66 0 8 -7 32
-16 54 -14 35 -20 40 -48 40 l-31 1 24 20 c36 30 80 22 108 -20z m-3341 -30
c-9 -10 -16 -24 -16 -32 0 -12 -2 -12 -9 0 -8 12 -2 32 24 71 8 13 10 12 13
-3 2 -10 -3 -26 -12 -36z m2039 -21 c17 -54 -63 -87 -87 -35 -15 33 4 55 48
55 24 0 34 -5 39 -20z m245 5 c6 -8 9 -23 5 -35 -8 -26 -43 -24 -59 3 -9 15
-7 21 8 33 25 18 31 18 46 -1z m-1089 -65 c-58 -38 -108 -67 -113 -64 -4 3 -2
17 6 32 7 15 16 39 19 53 9 35 40 48 122 48 l70 1 -104 -70z m649 10 c0 -11
-6 -20 -13 -20 -19 0 -27 10 -20 26 8 21 33 17 33 -6z m1814 11 c3 -5 -1 -14
-8 -20 -16 -13 -32 2 -21 19 8 12 22 13 29 1z m326 -10 c15 -28 12 -51 -5 -51
-8 0 -15 6 -15 14 0 7 -7 19 -15 26 -21 17 -19 30 5 30 10 0 24 -9 30 -19z
m-2307 -22 c15 -24 1 -49 -27 -49 -29 0 -44 33 -25 56 15 18 38 15 52 -7z
m-1737 -44 c-23 -81 -46 -189 -46 -210 -1 -19 -1 -19 -11 -2 -11 19 9 113 48
225 20 58 25 49 9 -13z m3917 15 c3 -11 2 -18 -3 -15 -4 3 -10 14 -13 25 -3
11 -2 18 3 15 4 -3 10 -14 13 -25z m-1626 -11 c17 -17 4 -39 -22 -39 -27 0
-39 14 -31 35 6 18 37 20 53 4z m143 -9 c0 -13 -7 -20 -20 -20 -19 0 -27 20
-13 33 13 14 33 6 33 -13z m1650 -32 c0 -14 -18 -9 -24 8 -11 28 -6 39 9 20 8
-11 15 -23 15 -28z m-2424 -3 c16 -24 16 -27 -1 -45 -32 -35 -75 -19 -75 27 0
21 23 42 47 43 7 0 20 -11 29 -25z m411 -21 c8 -20 -9 -36 -30 -28 -20 7 -22
30 -4 37 21 9 27 7 34 -9z m-1050 -41 c-3 -10 -5 -4 -5 12 0 17 2 24 5 18 2
-7 2 -21 0 -30z m1161 25 c31 -31 -2 -67 -48 -53 -35 11 -19 65 20 65 9 0 21
-5 28 -12z m187 -18 c0 -18 -6 -26 -23 -28 -24 -4 -38 18 -28 44 3 9 15 14 28
12 17 -2 23 -10 23 -28z m1623 -49 c13 -17 20 -31 16 -31 -4 0 1 -7 12 -15 10
-8 14 -15 8 -15 -19 0 -51 33 -73 75 -26 49 -28 81 -3 43 9 -14 27 -40 40 -57z
m-670 -30 c20 -5 48 -11 61 -13 14 -2 26 -9 29 -15 6 -19 -62 -17 -99 2 -31
17 -69 69 -69 95 1 8 10 -2 20 -22 15 -28 29 -40 58 -47z m472 13 c0 -19 -5
-24 -25 -24 -23 0 -25 3 -19 28 4 15 9 31 11 35 8 14 33 -15 33 -39z m-3689
-22 c-2 -34 0 -41 12 -36 22 8 57 -14 57 -36 0 -22 -37 -51 -56 -43 -8 3 -14
11 -14 19 0 8 -4 14 -9 14 -19 0 -29 -172 -11 -200 10 -17 -6 -31 -27 -23 -25
10 -13 225 18 321 15 46 34 35 30 -16z m2195 23 c8 -31 -10 -55 -42 -55 -28 0
-43 23 -36 56 4 20 10 24 38 24 28 0 35 -5 40 -25z m118 2 c14 -21 -13 -51
-37 -41 -20 7 -22 35 -5 52 15 15 28 11 42 -11z m-260 -46 c10 -16 -5 -41 -24
-41 -23 0 -34 16 -26 35 6 16 42 20 50 6z m1483 -13 c-3 -8 -6 -5 -6 6 -1 11
2 17 5 13 3 -3 4 -12 1 -19z m159 -15 c23 -30 18 -43 -11 -30 -25 12 -35 47
-14 47 7 0 18 -8 25 -17z m-146 -35 c0 -35 40 -131 59 -142 15 -10 14 -26 -1
-26 -22 1 -44 42 -57 105 -7 33 -15 68 -17 78 -3 9 -1 17 5 17 6 0 11 -15 11
-32z m-3197 8 c16 -41 -32 -224 -55 -210 -11 7 -10 62 2 69 5 3 15 15 20 26
10 18 8 19 -27 13 -31 -5 -42 -2 -57 15 -19 21 -19 22 9 51 16 17 37 30 46 30
10 0 21 5 24 10 9 15 32 12 38 -4z m2746 -96 c-12 -36 -23 -103 -26 -150 -5
-82 -4 -87 22 -118 26 -31 26 -32 6 -32 -13 0 -29 13 -42 33 -17 27 -20 44
-16 102 5 66 32 167 57 216 20 37 20 15 -1 -51z m-563 -95 c-28 -99 -49 -141
-107 -223 -32 -45 -59 -84 -59 -87 0 -7 -100 -115 -154 -166 -46 -44 -96 -68
-96 -48 0 5 7 9 16 9 9 0 18 8 21 18 2 10 17 23 34 31 16 7 46 37 66 67 21 29
43 54 48 54 11 1 64 68 93 120 25 46 84 134 93 140 5 3 13 26 19 50 6 25 13
54 16 65 3 11 8 45 12 75 l7 55 3 -55 c1 -30 -4 -77 -12 -105z m1433 103 c1
-5 -3 -8 -9 -8 -5 0 -10 12 -9 28 0 24 1 25 9 7 5 -11 9 -23 9 -27z m-726 -28
c-2 -39 -16 -71 -27 -59 -2 2 -1 28 1 57 7 64 29 66 26 2z m-35 2 c3 -17 -2
-22 -17 -22 -16 0 -21 6 -21 26 0 33 33 30 38 -4z m-3027 -9 c-17 -32 -40 -58
-41 -47 0 11 38 64 46 64 3 0 0 -8 -5 -17z m3806 -54 c-5 -4 -13 -13 -18 -20
-6 -9 -9 4 -9 36 l0 50 19 -30 c10 -18 14 -33 8 -36z m-1760 35 c-3 -3 -12 -4
-19 -1 -8 3 -5 6 6 6 11 1 17 -2 13 -5z m-1973 -26 c22 -30 20 -55 -4 -70 -11
-7 -20 -21 -20 -31 0 -10 -7 -29 -16 -42 -11 -17 -14 -35 -9 -64 8 -48 -8 -62
-36 -30 -24 28 -24 35 1 66 16 21 19 35 14 77 -5 44 -3 54 15 70 12 11 21 25
21 33 0 20 17 16 34 -9z m2973 -34 c1 -5 -2 -16 -7 -24 -12 -20 -35 2 -26 25
6 17 27 16 33 -1z m-3380 -26 c-3 -7 -5 -2 -5 12 0 14 2 19 5 13 2 -7 2 -19 0
-25z m552 -7 c-16 -5 -33 15 -24 30 6 9 12 7 22 -7 9 -13 10 -20 2 -23z m3601
-14 c0 -8 -32 -67 -36 -67 -2 0 -4 16 -4 35 0 28 4 35 20 35 11 0 20 -2 20 -3z
m-4110 -49 c0 -18 3 -51 7 -73 8 -54 -7 -37 -29 33 -22 71 -22 72 2 72 16 0
20 -7 20 -32z m586 19 c1 -1 4 -29 8 -62 l7 -60 -30 30 c-17 17 -37 47 -46 69
l-16 38 38 -7 c21 -4 38 -8 39 -8z m-499 -9 c4 -7 9 -32 10 -55 3 -56 31 -164
48 -183 7 -8 20 -30 29 -47 9 -18 29 -47 44 -65 45 -52 48 -74 7 -41 -74 59
-142 207 -160 351 -7 51 3 69 22 40z m3723 2 c0 -5 -6 -10 -14 -10 -8 0 -18 5
-21 10 -3 6 3 10 14 10 12 0 21 -4 21 -10z m-52 -91 c2 -40 8 -76 14 -80 19
-12 0 -27 -28 -21 -23 4 -25 8 -20 35 3 16 6 56 6 89 0 43 3 59 13 56 8 -3 13
-31 15 -79z m-1678 56 c16 -19 -3 -45 -32 -45 -24 0 -34 26 -18 45 16 19 34
19 50 0z m-384 -52 c-2 -10 -7 -44 -11 -76 -7 -59 -24 -87 -53 -87 -29 0 -62
-30 -62 -55 0 -30 -44 -65 -82 -65 -20 0 -37 -8 -50 -25 -16 -21 -28 -25 -68
-25 -38 0 -52 -4 -60 -19 -25 -47 -251 -54 -279 -9 -12 19 -11 20 11 15 12 -3
55 -9 94 -13 83 -7 137 6 160 41 13 19 21 22 59 18 38 -5 47 -2 68 21 17 18
34 26 59 26 41 0 53 11 65 59 7 29 15 36 48 45 l40 12 3 59 c2 37 9 66 19 77
21 23 46 24 39 1z m-1448 -69 c1 -10 -4 -28 -12 -39 -14 -19 -15 -17 -16 23 0
31 4 42 13 40 6 -3 13 -13 15 -24z m2980 -47 c5 -26 -20 -20 -44 10 l-21 27
-13 -82 c-9 -57 -17 -82 -26 -82 -18 0 -18 10 0 57 7 21 19 57 25 81 l12 43
32 -18 c18 -11 33 -27 35 -36z m544 -70 c-9 -15 -31 -42 -49 -59 -25 -24 -31
-27 -28 -12 2 10 9 42 15 70 l11 51 34 -11 34 -10 -17 -29z m-637 -103 c17
-14 22 -23 13 -20 -10 3 -20 0 -24 -6 -4 -7 -3 -8 4 -4 7 4 12 3 12 -3 0 -13
-114 -93 -118 -83 -3 9 70 141 78 142 3 0 19 -12 35 -26z m-917 -90 c-7 -7
-30 -20 -50 -29 -32 -13 -37 -13 -32 -1 3 8 11 13 18 10 7 -3 21 6 31 20 10
13 25 22 32 19 12 -5 12 -8 1 -19z m-98 -43 c0 -12 -81 -51 -106 -50 -11 0 3
12 36 29 62 31 70 34 70 21z m-235 -101 c-28 -12 -37 -12 -30 0 3 6 16 10 28
9 21 0 21 -1 2 -9z"/>
<path d="M2336 2805 c4 -9 15 -15 28 -13 29 4 23 22 -9 26 -19 3 -24 0 -19
-13z"/>
<path d="M2454 2787 c-7 -20 3 -37 22 -37 18 0 18 24 -1 40 -12 10 -16 9 -21
-3z"/>
<path d="M2516 2755 c-7 -20 21 -32 37 -16 9 9 8 14 -3 21 -21 13 -27 12 -34
-5z"/>
<path d="M2580 2716 c0 -8 5 -18 10 -21 13 -8 42 14 34 26 -9 15 -44 10 -44
-5z"/>
<path d="M1216 2652 c-8 -16 -22 -34 -30 -41 -9 -8 -16 -18 -16 -23 0 -12 57
47 71 74 6 12 6 18 0 18 -6 0 -17 -13 -25 -28z"/>
<path d="M2814 2625 c-12 -26 -9 -35 13 -35 14 0 19 45 5 54 -4 2 -12 -6 -18
-19z"/>
<path d="M2874 2606 c-9 -24 3 -47 21 -40 18 7 16 45 -2 52 -7 2 -16 -3 -19
-12z"/>
<path d="M1495 2280 c3 -5 8 -10 11 -10 2 0 4 5 4 10 0 6 -5 10 -11 10 -5 0
-7 -4 -4 -10z"/>
<path d="M1520 2260 c0 -5 5 -10 10 -10 6 0 10 5 10 10 0 6 -4 10 -10 10 -5 0
-10 -4 -10 -10z"/>
<path d="M1460 2246 c0 -19 27 -28 33 -11 7 15 -1 25 -20 25 -7 0 -13 -6 -13
-14z"/>
<path d="M1670 2100 c0 -5 5 -10 11 -10 5 0 7 5 4 10 -3 6 -8 10 -11 10 -2 0
-4 -4 -4 -10z"/>
<path d="M2787 962 c-11 -12 -16 -26 -11 -33 4 -7 3 -10 -2 -7 -5 3 -18 -4
-29 -15 -12 -11 -14 -17 -5 -13 8 4 5 -2 -8 -13 -22 -19 -23 -49 -1 -36 5 4 9
1 9 -4 0 -13 -10 -14 -30 -1 -16 10 -43 -6 -34 -21 3 -5 0 -9 -5 -9 -17 0 -13
-21 6 -35 13 -9 13 -14 3 -20 -9 -6 -11 -4 -6 4 6 8 2 11 -10 9 -13 -2 -18 2
-16 12 3 11 -2 10 -17 -4 -16 -15 -18 -22 -10 -33 7 -7 20 -11 30 -8 14 5 17
2 13 -9 -5 -13 1 -16 30 -16 20 0 36 -4 36 -10 0 -5 -16 -10 -35 -10 -23 0
-35 -5 -35 -14 0 -7 -6 -19 -14 -26 -8 -6 -16 -21 -18 -33 -4 -31 -48 -30 -60
2 -7 19 -6 22 5 12 17 -13 27 -5 27 23 0 15 -3 17 -9 8 -7 -11 -10 -10 -15 3
-3 9 -3 22 0 28 3 7 -1 4 -9 -5 -14 -18 -33 -25 -23 -10 2 4 -3 8 -13 8 -10 0
-18 -6 -18 -12 0 -7 6 -10 13 -7 6 2 15 0 19 -6 3 -6 -2 -11 -12 -11 -10 0
-31 -7 -47 -15 -16 -9 -38 -13 -49 -9 -15 5 -19 3 -14 -10 3 -8 1 -18 -5 -22
-7 -4 -8 -3 -4 4 9 15 -26 11 -46 -5 -7 -6 -24 -13 -38 -15 -34 -4 -31 -22 6
-29 24 -6 25 -7 6 -8 -13 0 -32 4 -42 9 -28 15 -110 -8 -103 -29 5 -12 3 -13
-6 -5 -13 12 -51 7 -51 -6 0 -4 -10 -8 -22 -8 -45 -1 -107 -10 -118 -17 -6 -4
-9 -13 -6 -20 2 -7 -1 -18 -7 -24 -8 -8 -8 -11 1 -12 45 -5 60 -3 80 9 20 13
22 12 22 -4 0 -16 2 -17 10 -4 6 10 10 11 10 3 0 -7 8 -13 18 -13 13 0 14 2 3
9 -8 5 -9 11 -3 15 6 3 13 2 17 -4 4 -6 13 -5 26 3 13 8 22 9 27 1 4 -6 40
-10 85 -9 45 0 77 -4 77 -10 0 -7 3 -7 8 0 4 6 59 10 127 10 141 0 189 14 182
52 -5 25 3 29 21 11 8 -8 12 -8 12 -1 0 6 9 13 20 16 22 6 29 57 8 57 -6 0 -9
3 -6 6 4 3 64 7 135 9 70 1 158 6 195 10 l66 8 -24 21 c-16 14 -25 34 -27 58
-1 20 -5 34 -9 32 -4 -3 -5 2 -2 10 3 9 10 13 15 10 5 -3 9 1 10 8 1 7 2 24 2
38 1 17 7 24 17 22 12 -3 13 -1 3 9 -15 15 -17 33 -4 25 5 -3 11 1 15 9 3 8
17 15 31 15 15 0 24 4 20 10 -3 6 0 12 7 15 8 3 14 15 15 25 1 13 -2 18 -9 14
-7 -5 -9 -2 -6 8 14 34 -6 39 -193 45 -177 5 -185 5 -202 -15z m-137 -213 c0
-5 -4 -9 -10 -9 -5 0 -10 7 -10 16 0 8 5 12 10 9 6 -3 10 -10 10 -16z m80 -99
c0 -5 -16 -10 -35 -10 -19 0 -35 5 -35 10 0 6 16 10 35 10 19 0 35 -4 35 -10z
m-377 -87 c-7 -2 -21 -2 -30 0 -10 3 -4 5 12 5 17 0 24 -2 18 -5z m-284 -82
c7 -5 9 -11 5 -14 -5 -3 -15 1 -22 9 -14 16 -5 18 17 5z m56 -1 c-3 -5 -10
-10 -16 -10 -5 0 -9 5 -9 10 0 6 7 10 16 10 8 0 12 -4 9 -10z"/>
<path d="M1330 960 c-194 -17 -298 -30 -351 -44 -31 -8 -105 -20 -165 -26 -60
-6 -120 -12 -134 -15 -14 -2 -42 -7 -64 -10 -21 -3 -42 -8 -47 -11 -8 -5 2
-30 27 -64 6 -8 11 -28 12 -44 3 -38 9 -43 34 -27 17 11 22 11 29 -1 7 -11 9
-10 9 1 0 8 3 11 6 8 4 -3 15 -2 26 4 12 7 24 7 31 1 7 -5 42 -8 80 -6 57 2
67 0 68 -14 0 -15 1 -15 7 -1 4 10 15 14 27 12 11 -3 28 -5 37 -6 9 -1 15 -4
12 -8 -2 -4 3 -10 12 -13 8 -3 13 -2 10 3 -3 5 6 11 21 14 22 4 25 3 13 -6
-20 -16 -24 -38 -5 -31 24 9 38 -5 23 -24 -12 -15 -11 -16 4 -3 10 7 25 11 33
7 11 -4 14 -2 8 7 -11 16 -10 60 1 68 5 4 11 31 13 60 5 71 19 97 57 104 35 6
212 -9 238 -20 12 -5 23 3 41 32 27 43 25 64 -7 61 -11 0 -59 -4 -106 -8z
m-163 -36 c-3 -3 -12 -4 -19 -1 -8 3 -5 6 6 6 11 1 17 -2 13 -5z"/>
<path d="M3550 904 c-13 -26 -31 -54 -39 -62 -9 -8 -16 -21 -17 -28 -1 -8 -9
-21 -18 -30 -9 -8 -16 -21 -16 -29 0 -7 -13 -18 -30 -25 -16 -7 -28 -16 -25
-20 3 -5 -1 -11 -7 -13 -10 -4 -10 -6 0 -6 6 -1 12 -8 12 -16 0 -8 4 -15 9
-15 4 0 6 11 4 24 -3 13 0 26 5 30 16 9 8 -49 -8 -66 -10 -10 -22 -12 -35 -7
-11 4 -14 8 -7 8 6 1 12 6 12 12 0 5 -5 7 -12 3 -8 -5 -9 -2 -5 9 8 23 6 22
-60 -13 -66 -36 -78 -45 -43 -36 17 5 21 4 11 -2 -7 -5 -9 -12 -5 -14 13 -8
104 -7 104 1 0 3 24 5 52 3 59 -4 110 11 106 30 -2 9 14 14 55 16 33 1 76 11
100 22 47 23 51 24 42 10 -3 -5 1 -10 9 -10 9 0 16 6 16 13 0 9 2 9 9 -1 6 -9
19 -11 45 -7 38 8 46 26 21 47 -52 43 -65 61 -61 81 9 50 19 83 29 95 17 22
-11 32 -88 32 -38 0 -86 3 -105 6 -33 5 -36 3 -60 -42z"/>
<path d="M4050 881 c-6 -12 -7 -28 -1 -43 8 -22 7 -24 -22 -24 -26 1 -32 -3
-32 -21 0 -12 -3 -25 -7 -29 -4 -3 -6 3 -3 15 4 22 -9 29 -20 11 -4 -6 -29
-22 -56 -35 -27 -14 -49 -28 -49 -31 0 -2 9 0 20 6 11 6 24 8 29 5 5 -3 16 2
24 10 20 19 28 19 20 0 -3 -9 -2 -15 3 -13 5 1 19 -3 32 -10 20 -11 22 -10 22
8 0 20 7 23 70 23 60 0 71 -3 64 -15 -5 -7 -2 -9 9 -5 8 3 32 9 51 13 20 3 36
10 36 15 0 5 8 9 18 9 14 0 15 2 2 10 -12 8 -9 10 13 10 16 0 30 7 34 16 4 11
8 12 13 4 5 -7 9 -2 12 14 3 14 1 26 -3 26 -5 0 -9 -4 -9 -9 0 -14 -26 -20
-41 -9 -11 8 -11 9 3 4 10 -3 20 -1 23 3 6 11 -23 23 -36 15 -5 -3 -9 -1 -9 4
0 15 -63 21 -79 8 -11 -8 -13 -8 -8 1 5 8 -5 14 -30 18 -21 3 -48 8 -60 11
-15 3 -26 -2 -33 -15z"/>
<path d="M4015 841 c-6 -11 9 -23 19 -14 9 9 7 23 -3 23 -6 0 -12 -4 -16 -9z"/>
<path d="M4350 834 c0 -7 3 -19 6 -28 5 -13 9 -13 40 1 38 19 42 28 17 37 -15
6 -32 -8 -33 -26 0 -5 -5 -8 -12 -8 -9 0 -9 3 0 12 16 16 15 25 -3 25 -8 0
-15 -6 -15 -13z"/>
<path d="M1155 691 c4 -13 8 -31 10 -40 2 -18 20 -17 20 2 0 6 -8 23 -18 37
l-19 25 7 -24z"/>
<path d="M2454 645 c-24 -18 -7 -19 26 0 16 9 19 14 9 15 -8 0 -24 -7 -35 -15z"/>
<path d="M3192 611 c-9 -5 -4 -8 16 -7 17 1 28 4 25 9 -6 9 -25 9 -41 -2z"/>
<path d="M1395 490 c-16 -4 -55 -8 -85 -9 -53 -1 -91 -14 -79 -26 7 -7 172
-24 179 -18 2 2 -2 8 -10 14 -11 7 -6 8 15 3 17 -4 35 -11 42 -16 7 -6 65 -11
130 -13 65 -1 112 0 106 2 -23 8 -14 21 15 20 15 0 21 -2 15 -4 -7 -3 -13 -12
-13 -21 0 -15 2 -15 10 -2 7 12 12 12 22 2 14 -14 114 -17 122 -3 7 10 25 9
43 -2 12 -8 12 10 0 31 -6 9 -13 9 -29 1 -17 -9 -24 -8 -32 3 -12 16 -90 33
-81 17 4 -5 2 -9 -4 -9 -5 0 -12 6 -14 13 -4 9 -8 8 -16 -3 -6 -8 -11 -10 -11
-4 0 7 -30 12 -85 13 -47 1 -97 6 -111 11 -29 11 -85 11 -129 0z m65 -20 c-8
-5 -22 -9 -30 -9 -10 0 -8 3 5 9 27 12 43 12 25 0z"/>
<path d="M1935 469 c-19 -9 -18 -9 3 -5 25 5 30 -9 7 -18 -17 -6 -20 -26 -4
-26 5 0 7 5 4 10 -3 6 -2 10 4 10 5 0 11 -3 14 -7 2 -5 2 -2 1 5 -2 6 4 12 14
13 10 0 12 3 4 6 -6 2 -10 9 -6 14 7 11 -15 10 -41 -2z"/>
<path d="M1850 460 c0 -5 5 -10 10 -10 6 0 10 5 10 10 0 6 -4 10 -10 10 -5 0
-10 -4 -10 -10z"/>
</g>
</svg>
